<svg width="34" height="34" viewBox="0 0 34 34" fill="none" xmlns="http://www.w3.org/2000/svg">
<path fill-rule="evenodd" clip-rule="evenodd" d="M11.2721 22.7276C10.063 21.5184 10.063 19.5526 11.2721 18.3435L14.1005 15.5151L12.757 14.1716L9.9286 17C7.97699 18.9516 7.97699 22.1194 9.9286 24.0711C11.8802 26.0227 15.0481 26.0227 16.9997 24.0711L19.8281 21.2426L18.4846 19.8991L15.6562 22.7276C14.447 23.9367 12.4813 23.9367 11.2721 22.7276ZM14.8783 20.5355L20.5352 14.8787L19.121 13.4645L13.4641 19.1213L14.8783 20.5355ZM14.1712 12.7573L16.9997 9.92892C18.9513 7.97731 22.1191 7.97731 24.0707 9.92892C26.0224 11.8805 26.0224 15.0484 24.0707 17L21.2423 19.8284L19.8988 18.4849L22.7272 15.6565C23.9364 14.4473 23.9364 12.4816 22.7272 11.2724C21.5181 10.0633 19.5523 10.0633 18.3432 11.2724L15.5147 14.1009L14.1712 12.7573Z" fill="black" fill-opacity="1"/>
<path fill-rule="evenodd" clip-rule="evenodd" d="M11.5 7.25H12C12.55 7.25 13 7.7 13 8.25V13.25C13 13.8 12.55 14.25 12 14.25H6C5.45 14.25 5 13.8 5 13.25V8.25C5 7.7 5.45 7.25 6 7.25H6.5V6.25C6.5 4.87 7.62 3.75 9 3.75C10.38 3.75 11.5 4.87 11.5 6.25V7.25ZM9 4.75C8.17 4.75 7.5 5.42 7.5 6.25V7.25H10.5V6.25C10.5 5.42 9.83 4.75 9 4.75ZM6 13.25V8.25H12V13.25H6ZM10 10.75C10 11.3 9.55 11.75 9 11.75C8.45 11.75 8 11.3 8 10.75C8 10.2 8.45 9.75 9 9.75C9.55 9.75 10 10.2 10 10.75Z" fill="black" fill-opacity="1"/>
</svg>
