<svg width="16" height="16" viewBox="0 0 16 16" fill="none" xmlns="http://www.w3.org/2000/svg">
<path d="M3.45588 6C3.05434 6 2.73434 6.16245 2.51996 6.42453C2.32875 6.65829 2.22302 6.96778 2.18558 7.30842C2.17676 7.32385 2.17157 7.34237 2.17157 7.36212C2.17157 7.3725 2.17301 7.38254 2.17569 7.39205C2.17548 7.39157 2.17553 7.39184 2.17549 7.39213C2.10078 7.47675 2.05998 7.59411 2.05998 7.72486C2.05998 7.88237 2.12721 8.01393 2.2364 8.09371C2.3304 8.45541 2.5206 8.78041 2.77074 9.00012C2.76294 9.22749 2.69851 9.38543 2.59557 9.50666C2.48588 9.63583 2.32812 9.7274 2.14274 9.7986C1.94048 9.87613 1.69036 9.99673 1.47146 10.1704C1.25257 10.3441 1.06179 10.5743 1.00224 10.869C1.00082 10.8757 1 10.8833 1 10.8911C1 10.9513 1.04819 11 1.10764 11C1.15949 11 1.20277 10.9629 1.21299 10.9135C1.25894 10.686 1.4103 10.4955 1.60421 10.3417C1.79811 10.1878 2.03151 10.0741 2.2192 10.0021C2.42353 9.92367 2.61608 9.8169 2.759 9.64859C2.86954 9.51842 2.94529 9.35075 2.9745 9.14588C3.122 9.22917 3.28271 9.28144 3.4559 9.28144C3.66257 9.28144 3.85295 9.21126 4.02174 9.09573C4.04511 9.32299 4.12185 9.50828 4.24102 9.64859C4.38397 9.8169 4.57637 9.92367 4.78081 10.0021C4.96839 10.0741 5.20187 10.1878 5.3958 10.3417C5.58974 10.4955 5.74106 10.686 5.78689 10.9128C5.79723 10.9629 5.84051 11 5.89236 11C5.95181 11 6 10.9512 6 10.8911C6 10.8833 5.99918 10.8757 5.99764 10.8683C5.93822 10.5743 5.74747 10.3441 5.52855 10.1704C5.30963 9.99673 5.05941 9.87612 4.85727 9.79859C4.67178 9.72737 4.51415 9.63582 4.40444 9.50665C4.29473 9.37747 4.22632 9.20975 4.22632 8.9572C4.22633 8.95665 4.22633 8.95599 4.22633 8.95533C4.22633 8.94572 4.22511 8.93641 4.22279 8.92755C4.43127 8.71403 4.58845 8.4213 4.67287 8.10263C4.79343 8.02772 4.86946 7.89042 4.86946 7.72486C4.86946 7.58652 4.81759 7.46815 4.73336 7.38321C4.70433 7.01043 4.59563 6.67034 4.38764 6.41901C4.17331 6.16001 3.8549 6.00001 3.45591 6.00001L3.45588 6ZM3.45588 6.21757C3.79998 6.21757 4.04605 6.34557 4.22251 6.5588C4.34158 6.70268 4.4244 6.89102 4.47456 7.10487C4.26632 7.12435 4.11521 7.05817 3.97678 6.89281C3.95693 6.86931 3.9276 6.8545 3.89486 6.8545C3.89367 6.8545 3.8925 6.85453 3.89133 6.85456C3.85462 6.85566 3.82254 6.87537 3.80396 6.90469C3.5896 7.24978 3.23271 7.3389 2.90937 7.34281C2.66724 7.34574 2.4959 7.30576 2.40486 7.28162C2.44381 6.99538 2.53675 6.74485 2.68548 6.56304C2.86211 6.34712 3.10961 6.21757 3.45589 6.21757H3.45588ZM3.91251 7.10571C4.07833 7.25539 4.27823 7.34335 4.51154 7.32244C4.51569 7.35836 4.52261 7.39253 4.52498 7.42953C4.52723 7.46398 4.54501 7.49381 4.57125 7.51216C4.60713 7.53699 4.65437 7.61966 4.65437 7.72487C4.65437 7.85413 4.58449 7.93806 4.55103 7.9467C4.51298 7.95691 4.48363 7.98673 4.47391 8.02456C4.32686 8.60877 3.91106 9.06388 3.4559 9.06388C2.99906 9.06388 2.58164 8.60526 2.43639 8.01894C2.4278 7.98466 2.40398 7.95736 2.37284 7.94441C2.33766 7.93029 2.27509 7.84579 2.27509 7.72487C2.27509 7.62877 2.31405 7.55053 2.3486 7.52047C2.35635 7.5135 2.36303 7.50553 2.36848 7.49671C2.4794 7.52466 2.65869 7.5635 2.91191 7.56042C3.24538 7.55637 3.64477 7.45012 3.91252 7.10573L3.91251 7.10571Z" fill="black"/>
<path d="M12.4559 6C12.0543 6 11.7343 6.16245 11.52 6.42453C11.3287 6.65829 11.223 6.96778 11.1856 7.30842C11.1768 7.32385 11.1716 7.34237 11.1716 7.36212C11.1716 7.3725 11.173 7.38254 11.1757 7.39205C11.1755 7.39157 11.1755 7.39184 11.1755 7.39213C11.1008 7.47675 11.06 7.59411 11.06 7.72486C11.06 7.88237 11.1272 8.01393 11.2364 8.09371C11.3304 8.45541 11.5206 8.78041 11.7707 9.00012C11.7629 9.22749 11.6985 9.38543 11.5956 9.50666C11.4859 9.63583 11.3281 9.7274 11.1427 9.7986C10.9405 9.87613 10.6904 9.99673 10.4715 10.1704C10.2526 10.3441 10.0618 10.5743 10.0022 10.869C10.0008 10.8757 10 10.8833 10 10.8911C10 10.9513 10.0482 11 10.1076 11C10.1595 11 10.2028 10.9629 10.213 10.9135C10.2589 10.686 10.4103 10.4955 10.6042 10.3417C10.7981 10.1878 11.0315 10.0741 11.2192 10.0021C11.4235 9.92367 11.6161 9.8169 11.759 9.64859C11.8695 9.51842 11.9453 9.35075 11.9745 9.14588C12.122 9.22917 12.2827 9.28144 12.4559 9.28144C12.6626 9.28144 12.8529 9.21126 13.0217 9.09573C13.0451 9.32299 13.1218 9.50828 13.241 9.64859C13.384 9.8169 13.5764 9.92367 13.7808 10.0021C13.9684 10.0741 14.2019 10.1878 14.3958 10.3417C14.5897 10.4955 14.7411 10.686 14.7869 10.9128C14.7972 10.9629 14.8405 11 14.8924 11C14.9518 11 15 10.9512 15 10.8911C15 10.8833 14.9992 10.8757 14.9976 10.8683C14.9382 10.5743 14.7475 10.3441 14.5286 10.1704C14.3096 9.99673 14.0594 9.87612 13.8573 9.79859C13.6718 9.72737 13.5141 9.63582 13.4044 9.50665C13.2947 9.37747 13.2263 9.20975 13.2263 8.9572C13.2263 8.95665 13.2263 8.95599 13.2263 8.95533C13.2263 8.94572 13.2251 8.93641 13.2228 8.92755C13.4313 8.71403 13.5884 8.4213 13.6729 8.10263C13.7934 8.02772 13.8695 7.89042 13.8695 7.72486C13.8695 7.58652 13.8176 7.46815 13.7334 7.38321C13.7043 7.01043 13.5956 6.67034 13.3876 6.41901C13.1733 6.16001 12.8549 6.00001 12.4559 6.00001L12.4559 6ZM12.4559 6.21757C12.8 6.21757 13.0461 6.34557 13.2225 6.5588C13.3416 6.70268 13.4244 6.89102 13.4746 7.10487C13.2663 7.12435 13.1152 7.05817 12.9768 6.89281C12.9569 6.86931 12.9276 6.8545 12.8949 6.8545C12.8937 6.8545 12.8925 6.85453 12.8913 6.85456C12.8546 6.85566 12.8225 6.87537 12.804 6.90469C12.5896 7.24978 12.2327 7.3389 11.9094 7.34281C11.6672 7.34574 11.4959 7.30576 11.4049 7.28162C11.4438 6.99538 11.5367 6.74485 11.6855 6.56304C11.8621 6.34712 12.1096 6.21757 12.4559 6.21757H12.4559ZM12.9125 7.10571C13.0783 7.25539 13.2782 7.34335 13.5115 7.32244C13.5157 7.35836 13.5226 7.39253 13.525 7.42953C13.5272 7.46398 13.545 7.49381 13.5713 7.51216C13.6071 7.53699 13.6544 7.61966 13.6544 7.72487C13.6544 7.85413 13.5845 7.93806 13.551 7.9467C13.513 7.95691 13.4836 7.98673 13.4739 8.02456C13.3269 8.60877 12.9111 9.06388 12.4559 9.06388C11.9991 9.06388 11.5816 8.60526 11.4364 8.01894C11.4278 7.98466 11.404 7.95736 11.3728 7.94441C11.3377 7.93029 11.2751 7.84579 11.2751 7.72487C11.2751 7.62877 11.314 7.55053 11.3486 7.52047C11.3564 7.5135 11.363 7.50553 11.3685 7.49671C11.4794 7.52466 11.6587 7.5635 11.9119 7.56042C12.2454 7.55637 12.6448 7.45012 12.9125 7.10573L12.9125 7.10571Z" fill="black"/>
<path d="M7.89412 2C6.93042 2 6.16242 2.38988 5.64791 3.01887C5.189 3.57989 4.93524 4.32268 4.8454 5.1402C4.82423 5.17725 4.81177 5.22168 4.81177 5.2691C4.81177 5.294 4.81523 5.3181 4.82165 5.34092C4.82116 5.33977 4.82126 5.34042 4.82119 5.3411C4.64186 5.5442 4.54394 5.82586 4.54394 6.13966C4.54394 6.51769 4.7053 6.83342 4.96737 7.02491C5.19297 7.89299 5.64943 8.67299 6.24978 9.20028C6.23105 9.74598 6.07642 10.125 5.82938 10.416C5.56612 10.726 5.1875 10.9458 4.74257 11.1166C4.25715 11.3027 3.65685 11.5922 3.1315 12.009C2.60616 12.4259 2.1483 12.9784 2.00537 13.6857C2.00196 13.7016 2 13.7199 2 13.7387C2 13.883 2.11565 14 2.25833 14C2.38278 14 2.48666 13.911 2.51118 13.7924C2.62146 13.2464 2.98473 12.7893 3.45009 12.42C3.91546 12.0508 4.47563 11.7778 4.92608 11.6052C5.41648 11.4168 5.87859 11.1605 6.2216 10.7566C6.48689 10.4442 6.66869 10.0418 6.73879 9.55011C7.09279 9.75 7.47851 9.87545 7.89417 9.87545C8.39017 9.87545 8.84707 9.70703 9.25218 9.42975C9.30826 9.97519 9.49243 10.4199 9.77845 10.7566C10.1215 11.1605 10.5833 11.4168 11.074 11.6052C11.5241 11.7778 12.0845 12.0508 12.5499 12.42C13.0154 12.7893 13.3785 13.2464 13.4885 13.7907C13.5133 13.911 13.6172 14 13.7417 14C13.8843 14 14 13.883 14 13.7387C14 13.7199 13.998 13.7016 13.9943 13.684C13.8517 12.9783 13.3939 12.4259 12.8685 12.009C12.3431 11.5922 11.7426 11.3027 11.2575 11.1166C10.8123 10.9457 10.434 10.726 10.1707 10.416C9.90735 10.1059 9.74317 9.7034 9.74317 9.09728C9.7432 9.09595 9.7432 9.09439 9.7432 9.09279C9.7432 9.06974 9.74026 9.04739 9.73471 9.02611C10.235 8.51368 10.6123 7.81112 10.8149 7.04631C11.1042 6.86653 11.2867 6.53701 11.2867 6.13966C11.2867 5.80764 11.1622 5.52355 10.9601 5.31969C10.8904 4.42503 10.6295 3.60882 10.1303 3.00563C9.61593 2.38403 8.85177 2.00003 7.8942 2.00003L7.89412 2ZM7.89412 2.52217C8.71996 2.52217 9.31053 2.82937 9.73404 3.34113C10.0198 3.68644 10.2186 4.13846 10.339 4.65168C9.83916 4.69844 9.47651 4.53962 9.14427 4.14274C9.09662 4.08635 9.02624 4.05081 8.94765 4.05081C8.94481 4.05081 8.942 4.05086 8.93919 4.05094C8.8511 4.05358 8.77409 4.10089 8.72951 4.17125C8.21503 4.99947 7.3585 5.21335 6.58249 5.22275C6.00137 5.22978 5.59015 5.13383 5.37167 5.07589C5.46515 4.38892 5.6882 3.78764 6.04514 3.35131C6.46906 2.83308 7.06306 2.52217 7.89414 2.52217H7.89412ZM8.99003 4.65371C9.38798 5.01294 9.86775 5.22403 10.4277 5.17385C10.4376 5.26006 10.4543 5.34207 10.4599 5.43087C10.4653 5.51355 10.508 5.58514 10.571 5.62919C10.6571 5.68877 10.7705 5.88719 10.7705 6.13969C10.7705 6.44991 10.6028 6.65134 10.5225 6.67207C10.4311 6.69659 10.3607 6.76815 10.3374 6.85893C9.98446 8.26105 8.98655 9.35331 7.89417 9.35331C6.79774 9.35331 5.79593 8.25261 5.44735 6.84546C5.42672 6.76319 5.36956 6.69766 5.29481 6.66659C5.21039 6.6327 5.06021 6.42989 5.06021 6.13969C5.06021 5.90905 5.15371 5.72127 5.23664 5.64913C5.25525 5.6324 5.27128 5.61326 5.28436 5.59211C5.55056 5.65919 5.98085 5.75239 6.58858 5.74501C7.3889 5.73529 8.34746 5.48029 8.99006 4.65374L8.99003 4.65371Z" fill="black"/>
</svg>
