<svg width="16" height="16" viewBox="0 0 16 16" fill="none" xmlns="http://www.w3.org/2000/svg">
<path fill-rule="evenodd" clip-rule="evenodd" d="M12.6242 6.88433C10.9099 6.62182 9.19555 7.40935 8.65417 9.33443C8.51882 9.9032 8.60905 10.297 8.96997 10.3407C9.28578 10.3407 10.5941 10.3845 11.6768 9.64069C12.2182 9.29068 12.4889 8.80941 12.6242 8.28439C12.8047 7.75937 12.94 6.92808 12.6242 6.88433ZM3.37574 6.88433C5.09009 6.62182 6.75934 7.40935 7.30072 9.33443C7.48119 9.9032 7.34584 10.297 7.03003 10.3407C6.71423 10.3407 5.40589 10.3845 4.32315 9.64069C3.82689 9.29068 3.51109 8.80941 3.37574 8.28439C3.19528 7.75937 3.05994 6.92808 3.37574 6.88433ZM7.97766 1C4.74022 1 2 3.70847 2 6.92816C2 9.3785 3.16796 11.3909 4.47854 12.7856C5.13383 13.483 5.82534 14.0279 6.43739 14.4036C7.04943 14.7794 7.55283 15 7.97766 15C8.4089 15 8.92389 14.7806 9.54262 14.4048C10.1614 14.029 10.8573 13.4831 11.5156 12.7856C12.8321 11.3907 14 9.3785 14 6.92816C14 3.70847 11.2577 1 7.97766 1Z" fill="#969494"/>
</svg>
