<svg width="64" height="64" viewBox="0 0 64 64" fill="none" xmlns="http://www.w3.org/2000/svg">
<path d="M0 0H64V64C28.6538 64 0 35.3462 0 0Z" fill="#F1F7FD"/>
<path fill-rule="evenodd" clip-rule="evenodd" d="M45 20C47.2091 20 49 18.2091 49 16C49 13.7909 47.2091 12 45 12C42.7909 12 41 13.7909 41 16C41 16.4201 41.0648 16.8252 41.1849 17.2056L31.7545 23.0996C31.0373 22.4181 30.0675 22 29 22C26.7909 22 25 23.7909 25 26C25 28.2091 26.7909 30 29 30C30.0672 30 31.0369 29.582 31.7541 28.9009L41.1847 34.795C41.0647 35.1753 41 35.5801 41 36C41 38.2091 42.7909 40 45 40C47.2091 40 49 38.2091 49 36C49 33.7909 47.2091 32 45 32C43.9326 32 42.9628 32.4181 42.2455 33.0995L32.8151 27.2055C32.9352 26.8251 33 26.4201 33 26C33 25.5801 32.9353 25.1753 32.8153 24.7951L42.246 18.9009C42.9632 19.5821 43.9328 20 45 20Z" fill="#469CF8"/>
</svg>
