<svg width="16" height="16" viewBox="0 0 16 16" fill="none" xmlns="http://www.w3.org/2000/svg">
<path fill-rule="evenodd" clip-rule="evenodd" d="M12 5C13.1046 5 14 4.10457 14 3C14 1.89543 13.1046 1 12 1C10.8954 1 10 1.89543 10 3C10 3.21007 10.0324 3.41258 10.0924 3.6028L5.37727 6.54978C5.01863 6.20907 4.53373 6 4 6C2.89543 6 2 6.89543 2 8C2 9.10457 2.89543 10 4 10C4.53362 10 5.01843 9.79102 5.37705 9.45043L10.0924 12.3975C10.0324 12.5876 10 12.79 10 13C10 14.1046 10.8954 15 12 15C13.1046 15 14 14.1046 14 13C14 11.8954 13.1046 11 12 11C11.4663 11 10.9814 11.2091 10.6228 11.5497L5.90757 8.60276C5.96762 8.41255 6 8.21006 6 8C6 7.79005 5.96765 7.58766 5.90766 7.39753L10.623 4.45046C10.9816 4.79103 11.4664 5 12 5Z" fill="#969494"/>
</svg>
