<svg width="19" height="19" viewBox="0 0 19 19" fill="none" xmlns="http://www.w3.org/2000/svg">
<circle cx="9.5" cy="9.5" r="9.5" fill="white"/>
<path fill-rule="evenodd" clip-rule="evenodd" d="M12 7C13.1046 7 14 6.10457 14 5C14 3.89543 13.1046 3 12 3C10.8954 3 10 3.89543 10 5C10 5.21007 10.0324 5.41258 10.0924 5.6028L5.37727 8.54978C5.01863 8.20907 4.53373 8 4 8C2.89543 8 2 8.89543 2 10C2 11.1046 2.89543 12 4 12C4.53362 12 5.01843 11.791 5.37705 11.4504L10.0924 14.3975C10.0324 14.5876 10 14.79 10 15C10 16.1046 10.8954 17 12 17C13.1046 17 14 16.1046 14 15C14 13.8954 13.1046 13 12 13C11.4663 13 10.9814 13.2091 10.6228 13.5497L5.90757 10.6028C5.96762 10.4125 6 10.2101 6 10C6 9.79005 5.96765 9.58766 5.90766 9.39753L10.623 6.45046C10.9816 6.79103 11.4664 7 12 7Z" fill="#469CF8"/>
</svg>
