<svg width="16" height="16" viewBox="0 0 16 16" fill="none" xmlns="http://www.w3.org/2000/svg">
<circle cx="11" cy="2" r="2" fill="#469CF8"/>
<circle cx="3" cy="7" r="2" fill="#469CF8"/>
<path d="M11 2L3 7L7 10" stroke="#469CF8"/>
<path d="M9 12L9 11L14 11L14 10L16 11.5L14 13L14 12L9 12Z" fill="#469CF8"/>
<path d="M7 13.5L7.5 13.5L7.5 13.5L7 13.5ZM7 9.5L6.5 9.5L7 9.5ZM8 8.5L8 9L8 8.5ZM11.5 8.5L11.5 8L11.5 8L11.5 8.5ZM12 13L12 13.5L13 13.5L13 13L12 13ZM11.5 14L8 14L8 15L11.5 15L11.5 14ZM7.5 13.5L7.5 9.5L6.5 9.5L6.5 13.5L7.5 13.5ZM8 9L11.5 9L11.5 8L8 8L8 9ZM12 9.5L12 10L13 10L13 9.5L12 9.5ZM11.5 9C11.7761 9 12 9.22386 12 9.5L13 9.5C13 8.67157 12.3284 8 11.5 8L11.5 9ZM7.5 9.5C7.5 9.22386 7.72386 9 8 9L8 8C7.17157 8 6.5 8.67157 6.5 9.5L7.5 9.5ZM8 14C7.72386 14 7.5 13.7761 7.5 13.5L6.5 13.5C6.5 14.3284 7.17157 15 8 15L8 14ZM12 13.5C12 13.7761 11.7761 14 11.5 14L11.5 15C12.3284 15 13 14.3284 13 13.5L12 13.5Z" fill="#469CF8"/>
</svg>
