<svg xmlns="http://www.w3.org/2000/svg" width="16" height="16" viewBox="0 0 640 640" data-v-9785ba1c=""><g id="icomoon-ignore"></g><path fill="#000" d="M319.179 92.109c-37.339 0-67.096 14.933-87.031 39.024-17.781 21.488-27.613 49.938-31.094 81.25-0.82 1.419-1.303 3.121-1.303 4.937 0 0.954 0.134 1.877 0.383 2.751-0.019-0.044-0.015-0.019-0.018 0.007-6.948 7.779-10.742 18.567-10.742 30.586 0 14.479 6.252 26.572 16.406 33.906 8.741 33.249 26.427 63.124 49.688 83.32-0.726 20.901-6.717 35.419-16.289 46.563-10.2 11.874-24.87 20.291-42.109 26.836-18.808 7.127-42.067 18.213-62.422 34.18s-38.095 37.127-43.633 64.219c-0.132 0.61-0.208 1.311-0.208 2.029 0 5.528 4.481 10.009 10.009 10.009 4.822 0 8.847-3.41 9.797-7.95 4.273-20.914 18.348-38.422 36.379-52.565s39.735-24.598 57.188-31.211c19.001-7.214 36.906-17.029 50.196-32.5 10.279-11.966 17.323-27.379 20.039-46.211 13.716 7.656 28.661 12.461 44.766 12.461 19.218 0 36.921-6.451 52.617-17.071 2.173 20.891 9.309 37.923 20.391 50.821 13.293 15.471 31.184 25.286 50.195 32.5 17.443 6.613 39.154 17.067 57.188 31.211s32.105 31.652 36.367 52.5c0.961 4.605 4.986 8.014 9.808 8.014 5.528 0 10.009-4.481 10.009-10.009 0-0.719-0.076-1.419-0.219-2.095-5.526-27.027-23.264-48.187-43.621-64.153s-43.625-27.053-62.422-34.18c-17.249-6.546-31.907-14.962-42.109-26.836s-16.563-27.292-16.563-50.507c0.001-0.051 0.001-0.111 0.001-0.172 0-0.883-0.114-1.739-0.329-2.554 19.386-19.627 34.002-46.536 41.852-75.829 11.211-6.886 18.281-19.507 18.281-34.726 0-12.717-4.823-23.598-12.656-31.406-2.699-34.267-12.807-65.529-32.148-88.632-19.931-23.808-49.539-38.516-86.641-38.516zM319.179 112.109c31.998 0 54.88 11.766 71.289 31.367 11.072 13.226 18.773 30.539 23.438 50.196-19.365 1.791-33.416-4.292-46.289-19.493-1.846-2.16-4.573-3.521-7.618-3.521-0.11 0-0.219 0.002-0.328 0.005-3.413 0.101-6.397 1.913-8.124 4.608-19.934 31.722-53.121 39.914-83.188 40.274-22.516 0.269-38.449-3.406-46.914-5.625 3.622-26.312 12.264-49.342 26.094-66.054 16.425-19.849 39.44-31.757 71.641-31.757zM361.641 193.75c15.419 13.759 34.008 21.844 55.703 19.922 0.386 3.302 1.030 6.443 1.25 9.844 0.209 3.167 1.863 5.909 4.303 7.596 3.336 2.282 7.729 9.882 7.729 19.553 0 11.882-6.498 19.597-9.609 20.391-3.539 0.939-6.268 3.68-7.172 7.157-13.674 53.703-52.339 95.538-94.664 95.538-42.482 0-81.298-42.158-94.804-96.054-0.799-3.151-3.014-5.661-5.91-6.851-3.271-1.298-9.090-9.066-9.090-20.181 0-8.834 3.623-16.026 6.836-18.789 0.721-0.641 1.342-1.374 1.849-2.184 10.314 2.569 26.986 6.139 50.533 5.856 31.009-0.372 68.149-10.139 93.047-41.797z"></path></svg>